<?xml version="1.0" encoding="UTF-8"?>
<svg id="a" data-name="infoicon" xmlns="http://www.w3.org/2000/svg" viewBox="0 0 12 13">

<g id="b" data-name="infoicon body">
  <path class="c" d="m3.8,8h-1.8c-1.1,0-2-.9-2-2V2C0,.9.9,0,2,0h8c1.1,0,2,.9,2,2v4c0,1.1-.9,2-2,2h-3.1l-3.4,2.6.3-2.6Z" fill="none"/>
  <path d="m4.8,8.4l1.8-1.4h3.4c.6,0,1-.4,1-1V2c0-.5-.4-1-1-1H2c-.5,0-1,.5-1,1v4c0,.6.5,1,1,1h3l-.2,1.4m-1.3,2.2l.3-2.6h-1.8c-1.1,0-2-.9-2-2V2C0,.9.9,0,2,0h8c1.1,0,2,.9,2,2v4c0,1.1-.9,2-2,2h-3.1l-3.4,2.6Z" fill="currentColor"/>

  <path d="m2.8,4c0-.3.2-.5.5-.5s.5.2.5.5-.2.5-.5.5-.5-.3-.5-.5Z" fill="currentColor"/>
  <path d="m5.5,4c0-.3.2-.5.5-.5s.5.2.5.5-.2.5-.5.5-.5-.3-.5-.5Z" fill="currentColor"/>
  <path d="m8.2,4c0-.3.2-.5.5-.5s.5.2.5.5-.3.5-.5.5c-.3,0-.5-.3-.5-.5Z" fill="currentColor"/>
</g>  
  <rect class="c" width="12" height="13"/>
</svg>