<?xml version="1.0" encoding="UTF-8"?>
<svg id="a" data-name="レイヤー 1" xmlns="http://www.w3.org/2000/svg" viewBox="0 0 126 150">
  <defs>
    <style>
      .b {
        fill: #0fccad;
      }

      .c {
        fill: #ffde44;
      }

      .d {
        fill: #f24f33;
      }

      .e {
        fill: #231815;
      }
    </style>
  </defs>
  <path d="m48,108v6h-19.5c-4.2,0-7.74,2.88-8.7,6.81-1.5-.54-3.12-.81-4.8-.81-.42,0-.81.03-1.2.06,1.35-6.87,7.41-12.06,14.7-12.06h19.5Z"/>
  <path class="e" d="m67.5,16.8v7.2h-9v-7.2c1.32.75,2.85,1.2,4.5,1.2s3.18-.45,4.5-1.2Z"/>
  <path class="b" d="m117,73.23c-.96-.39-1.95-.72-3-.93v9.51c1.8,1.02,3,2.97,3,5.19,0,.33-.03.66-.09.96-.27,1.65-1.2,3.09-2.55,3.99-.15.09-.27.18-.42.24-.15.12-.33.21-.51.27-.3.15-.6.24-.93.33-.24.06-.48.12-.75.15-.24.03-.48.06-.75.06-1.8,0-3.42-.78-4.5-2.04-.93-1.05-1.5-2.43-1.5-3.96s.57-2.91,1.5-3.99c.42-.48.93-.87,1.5-1.2v-9.51c-.99.21-1.95.51-2.88.9-5.34,2.28-9.12,7.59-9.12,13.8,0,2.13.45,4.17,1.23,6,1.71,3.84,4.95,6.87,8.97,8.19,1.5.54,3.12.81,4.8.81.42,0,.81-.03,1.2-.06,7.71-.6,13.8-7.08,13.8-14.94,0-6.15-3.72-11.43-9-13.77Z"/>
  <path d="m114,81.81c1.8,1.02,3,2.97,3,5.19,0,.33-.03.66-.09.96-.27,1.65-1.2,3.09-2.55,3.99-.15.09-.27.18-.42.24-.15.12-.33.21-.51.27-.3.15-.6.24-.93.33-.24.06-.48.12-.75.15-.24.03-.48.06-.75.06-1.8,0-3.42-.78-4.5-2.04-.93-1.05-1.5-2.43-1.5-3.96s.57-2.91,1.5-3.99c.42-.48.93-.87,1.5-1.2v-12.54c-1.77.27-3.42.84-4.98,1.62-1.77.84-3.36,1.98-4.74,3.36-3.27,3.27-5.28,7.77-5.28,12.75,0,2.1.36,4.14,1.05,6H15c-3.33,0-6-2.7-6-6v-48c0-3.33,2.67-6,6-6h96c3.3,0,6,2.67,6,6v31.05c-.96-.36-1.98-.63-3-.78v12.54Z"/>
  <path class="b" d="m30,135c0,3.36-1.11,6.45-3,8.94-1.53,2.13-3.66,3.81-6.09,4.86-.93.39-1.92.69-2.91.9v-9.54c.57-.3,1.08-.72,1.5-1.23.93-1.05,1.5-2.43,1.5-3.93s-.57-2.88-1.5-3.96c-1.08-1.26-2.7-2.04-4.5-2.04-.51,0-1.02.06-1.5.21-2.61.66-4.5,3-4.5,5.79,0,2.22,1.2,4.14,3,5.16v9.54c-3.12-.63-5.88-2.25-7.95-4.5-2.52-2.67-4.05-6.24-4.05-10.2s1.53-7.53,4.05-10.2c.78-.9,1.71-1.68,2.73-2.31,2.04-1.38,4.44-2.25,7.02-2.43.39-.03.78-.06,1.2-.06,1.68,0,3.3.27,4.8.81,1.23.39,2.37.96,3.42,1.68,1.47.93,2.76,2.16,3.78,3.57,1.89,2.49,3,5.58,3,8.94Z"/>
  <path class="c" d="m72,9c0,2.49-.99,4.71-2.64,6.36-.54.54-1.17,1.02-1.86,1.44-1.32.75-2.85,1.2-4.5,1.2s-3.18-.45-4.5-1.2c-2.7-1.56-4.5-4.47-4.5-7.8,0-2.49.99-4.74,2.64-6.36,1.62-1.65,3.87-2.64,6.36-2.64s4.74.99,6.36,2.64c1.65,1.62,2.64,3.87,2.64,6.36Z"/>
  <rect class="c" x="30" y="53.99" width="18" height="18" rx="9" ry="9"/>
  <rect class="c" x="78" y="53.99" width="18" height="18" rx="9" ry="9"/>
  <path d="m112.2,101.94c-.21,1.05-.51,2.07-.93,3.06-2.34,5.28-7.62,9-13.77,9h-19.5v-6h19.5c3.12,0,5.88-1.62,7.5-4.05.39-.6.72-1.26.96-1.95.12-.27.21-.54.24-.81,1.5.54,3.12.81,4.8.81.42,0,.81-.03,1.2-.06Z"/>
  <rect x="24" y="119.99" width="78" height="30" rx="15" ry="15"/>
  <g>
    <path class="b" d="m62.91,149.99s.06,0,.09,0h.27s-.36,0-.36,0Z"/>
    <path class="b" d="m94.05,93c1.29,3.72,3.81,6.87,7.05,9h-23.1v17.99h-30v-17.99H15c-8.28,0-15-6.72-15-15v-48c0-8.28,6.72-15,15-15h96c8.28,0,15,6.72,15,15v38.07c-.66-1.02-1.41-1.95-2.28-2.82-1.89-1.86-4.17-3.33-6.72-4.2v-31.05c0-3.33-2.7-6-6-6H15c-3.33,0-6,2.67-6,6v48c0,3.3,2.67,6,6,6h79.05Z"/>
  </g>
  <rect class="c" x="54" y="125.99" width="18" height="18" rx="9" ry="9"/>
  <rect class="d" x="78" y="125.99" width="18" height="18" rx="9" ry="9"/>
  <rect class="b" x="30" y="125.99" width="18" height="18" rx="9" ry="9"/>
  <rect class="d" x="51.83" y="108.01" width="21" height="6"/>
</svg>