<?xml version="1.0" encoding="UTF-8"?>
<svg id="a" data-name="レイヤー 1" xmlns="http://www.w3.org/2000/svg" viewBox="0 0 134.4 160">
  <defs>
    <style>
      .b {
        fill: #0fccad;
      }

      .c {
        fill: #ffde44;
      }

      .d {
        fill: #f24f33;
      }

      .e {
        fill: #231815;
      }
    </style>
  </defs>
  <path d="m51.2,115.2v6.4h-20.8c-4.48,0-8.26,3.07-9.28,7.26-1.6-.58-3.33-.86-5.12-.86-.45,0-.86.03-1.28.06,1.44-7.33,7.9-12.86,15.68-12.86h20.8Z"/>
  <path class="e" d="m72,17.92v7.68h-9.6v-7.68c1.41.8,3.04,1.28,4.8,1.28s3.39-.48,4.8-1.28Z"/>
  <path class="b" d="m124.8,78.11c-1.02-.42-2.08-.77-3.2-.99v10.14c1.92,1.09,3.2,3.17,3.2,5.54,0,.35-.03.7-.1,1.02-.29,1.76-1.28,3.3-2.72,4.26-.16.1-.29.19-.45.26-.16.13-.35.22-.54.29-.32.16-.64.26-.99.35-.26.06-.51.13-.8.16-.26.03-.51.06-.8.06-1.92,0-3.65-.83-4.8-2.18-.99-1.12-1.6-2.59-1.6-4.22s.61-3.1,1.6-4.26c.45-.51.99-.93,1.6-1.28v-10.14c-1.06.22-2.08.54-3.07.96-5.7,2.43-9.73,8.1-9.73,14.72,0,2.27.48,4.45,1.31,6.4,1.82,4.1,5.28,7.33,9.57,8.74,1.6.58,3.33.86,5.12.86.45,0,.86-.03,1.28-.06,8.22-.64,14.72-7.55,14.72-15.94,0-6.56-3.97-12.19-9.6-14.69Z"/>
  <path d="m121.6,87.26c1.92,1.09,3.2,3.17,3.2,5.54,0,.35-.03.7-.1,1.02-.29,1.76-1.28,3.3-2.72,4.26-.16.1-.29.19-.45.26-.16.13-.35.22-.54.29-.32.16-.64.26-.99.35-.26.06-.51.13-.8.16-.26.03-.51.06-.8.06-1.92,0-3.65-.83-4.8-2.18-.99-1.12-1.6-2.59-1.6-4.22s.61-3.1,1.6-4.26c.45-.51.99-.93,1.6-1.28v-13.38c-1.89.29-3.65.9-5.31,1.73-1.89.9-3.58,2.11-5.06,3.58-3.49,3.49-5.63,8.29-5.63,13.6,0,2.24.38,4.42,1.12,6.4H16c-3.55,0-6.4-2.88-6.4-6.4v-51.2c0-3.55,2.85-6.4,6.4-6.4h102.4c3.52,0,6.4,2.85,6.4,6.4v33.12c-1.02-.38-2.11-.67-3.2-.83v13.38Z"/>
  <path class="b" d="m32,144c0,3.58-1.18,6.88-3.2,9.54-1.63,2.27-3.9,4.06-6.5,5.18-.99.42-2.05.74-3.1.96v-10.18c.61-.32,1.15-.77,1.6-1.31.99-1.12,1.6-2.59,1.6-4.19s-.61-3.07-1.6-4.22c-1.15-1.34-2.88-2.18-4.8-2.18-.54,0-1.09.06-1.6.22-2.78.7-4.8,3.2-4.8,6.18,0,2.37,1.28,4.42,3.2,5.5v10.18c-3.33-.67-6.27-2.4-8.48-4.8-2.69-2.85-4.32-6.66-4.32-10.88s1.63-8.03,4.32-10.88c.83-.96,1.82-1.79,2.91-2.46,2.18-1.47,4.74-2.4,7.49-2.59.42-.03.83-.06,1.28-.06,1.79,0,3.52.29,5.12.86,1.31.42,2.53,1.02,3.65,1.79,1.57.99,2.94,2.3,4.03,3.81,2.02,2.66,3.2,5.95,3.2,9.54Z"/>
  <path class="c" d="m76.8,9.6c0,2.66-1.06,5.02-2.82,6.78-.58.58-1.25,1.09-1.98,1.54-1.41.8-3.04,1.28-4.8,1.28s-3.39-.48-4.8-1.28c-2.88-1.66-4.8-4.77-4.8-8.32,0-2.66,1.06-5.06,2.82-6.78,1.73-1.76,4.13-2.82,6.78-2.82s5.06,1.06,6.78,2.82c1.76,1.73,2.82,4.13,2.82,6.78Z"/>
  <rect class="c" x="32" y="57.59" width="19.2" height="19.2" rx="9.6" ry="9.6"/>
  <rect class="c" x="83.2" y="57.59" width="19.2" height="19.2" rx="9.6" ry="9.6"/>
  <path d="m119.68,108.74c-.22,1.12-.54,2.21-.99,3.26-2.5,5.63-8.13,9.6-14.69,9.6h-20.8v-6.4h20.8c3.33,0,6.27-1.73,8-4.32.42-.64.77-1.34,1.02-2.08.13-.29.22-.58.26-.86,1.6.58,3.33.86,5.12.86.45,0,.86-.03,1.28-.06Z"/>
  <rect x="25.6" y="127.99" width="83.2" height="32" rx="16" ry="16"/>
  <g>
    <path class="b" d="m67.1,159.99s.06,0,.1,0h.29s-.38,0-.38,0Z"/>
    <path class="b" d="m100.32,99.2c1.38,3.97,4.06,7.33,7.52,9.6h-24.64v19.19h-32v-19.19H16c-8.83,0-16-7.17-16-16v-51.2c0-8.83,7.17-16,16-16h102.4c8.83,0,16,7.17,16,16v40.61c-.7-1.09-1.5-2.08-2.43-3.01-2.02-1.98-4.45-3.55-7.17-4.48v-33.12c0-3.55-2.88-6.4-6.4-6.4H16c-3.55,0-6.4,2.85-6.4,6.4v51.2c0,3.52,2.85,6.4,6.4,6.4h84.32Z"/>
  </g>
  <rect class="c" x="57.6" y="134.39" width="19.2" height="19.2" rx="9.6" ry="9.6"/>
  <rect class="d" x="83.2" y="134.39" width="19.2" height="19.2" rx="9.6" ry="9.6"/>
  <rect class="b" x="32" y="134.39" width="19.2" height="19.2" rx="9.6" ry="9.6"/>
  <rect class="d" x="55.29" y="115.21" width="22.4" height="6.4"/>
</svg>