<?xml version="1.0" encoding="UTF-8"?>
<svg id="a" data-name="レイヤー 1" xmlns="http://www.w3.org/2000/svg" viewBox="0 0 230 270">
  <defs>
    <style>
      .b {
        fill: #fff;
      }

      .c {
        fill: #0fccad;
      }

      .d {
        fill: #ffde44;
      }

      .e {
        fill: #f24f33;
      }
    </style>
  </defs>
  <path class="b" d="m115,0c-13.79,0-25,11.21-25,25,0,5.48,1.82,10.73,5.03,15h-60.03C15.7,40,0,55.7,0,75v80c0,18.66,14.67,33.95,33.08,34.95-3.31,3.22-5.99,7.09-7.83,11.44-6.05,1.75-11.55,5.12-15.91,9.82-6.02,6.49-9.34,14.94-9.34,23.8,0,19.3,15.7,35,35,35,7.2,0,14.19-2.26,20-6.3,5.81,4.04,12.8,6.3,20,6.3h80c19.3,0,35-15.7,35-35,0-10.13-4.33-19.27-11.23-25.67,11.54-2.11,21.34-9.95,25.94-20.7,6.06-1.74,11.58-5.11,15.95-9.83,6.03-6.49,9.34-14.94,9.34-23.8v-80c0-19.3-15.7-35-35-35h-60.03c3.2-4.27,5.03-9.52,5.03-15,0-13.79-11.21-25-25-25h0Z"/>
  <g>
    <path d="m90,190v10h-32.5c-7,0-12.9,4.8-14.5,11.35-2.5-.9-5.2-1.35-8-1.35-.7,0-1.35.05-2,.1,2.25-11.45,12.35-20.1,24.5-20.1h32.5Z"/>
    <path d="m122.5,38v12h-15v-12c2.2,1.25,4.75,2,7.5,2s5.3-.75,7.5-2Z"/>
    <path class="c" d="m205,132.05c-1.6-.65-3.25-1.2-5-1.55v15.85c3,1.7,5,4.95,5,8.65,0,.55-.05,1.1-.15,1.6-.45,2.75-2,5.15-4.25,6.65-.25.15-.45.3-.7.4-.25.2-.55.35-.85.45-.5.25-1,.4-1.55.55-.4.1-.8.2-1.25.25-.4.05-.8.1-1.25.1-3,0-5.7-1.3-7.5-3.4-1.55-1.75-2.5-4.05-2.5-6.6s.95-4.85,2.5-6.65c.7-.8,1.55-1.45,2.5-2v-15.85c-1.65.35-3.25.85-4.8,1.5-8.9,3.8-15.2,12.65-15.2,23,0,3.55.75,6.95,2.05,10,2.85,6.4,8.25,11.45,14.95,13.65,2.5.9,5.2,1.35,8,1.35.7,0,1.35-.05,2-.1,12.85-1,23-11.8,23-24.9,0-10.25-6.2-19.05-15-22.95Z"/>
    <path d="m200,146.35c3,1.7,5,4.95,5,8.65,0,.55-.05,1.1-.15,1.6-.45,2.75-2,5.15-4.25,6.65-.25.15-.45.3-.7.4-.25.2-.55.35-.85.45-.5.25-1,.4-1.55.55-.4.1-.8.2-1.25.25-.4.05-.8.1-1.25.1-3,0-5.7-1.3-7.5-3.4-1.55-1.75-2.5-4.05-2.5-6.6s.95-4.85,2.5-6.65c.7-.8,1.55-1.45,2.5-2v-20.9c-2.95.45-5.7,1.4-8.3,2.7-2.95,1.4-5.6,3.3-7.9,5.6-5.45,5.45-8.8,12.95-8.8,21.25,0,3.5.6,6.9,1.75,10H35c-5.55,0-10-4.5-10-10v-80c0-5.55,4.45-10,10-10h160c5.5,0,10,4.45,10,10v51.75c-1.6-.6-3.3-1.05-5-1.3v20.9Z"/>
    <path class="c" d="m60,235c0,5.6-1.85,10.75-5,14.9-2.55,3.55-6.1,6.35-10.15,8.1-1.55.65-3.2,1.15-4.85,1.5v-15.9c.95-.5,1.8-1.2,2.5-2.05,1.55-1.75,2.5-4.05,2.5-6.55s-.95-4.8-2.5-6.6c-1.8-2.1-4.5-3.4-7.5-3.4-.85,0-1.7.1-2.5.35-4.35,1.1-7.5,5-7.5,9.65,0,3.7,2,6.9,5,8.6v15.9c-5.2-1.05-9.8-3.75-13.25-7.5-4.2-4.45-6.75-10.4-6.75-17s2.55-12.55,6.75-17c1.3-1.5,2.85-2.8,4.55-3.85,3.4-2.3,7.4-3.75,11.7-4.05.65-.05,1.3-.1,2-.1,2.8,0,5.5.45,8,1.35,2.05.65,3.95,1.6,5.7,2.8,2.45,1.55,4.6,3.6,6.3,5.95,3.15,4.15,5,9.3,5,14.9Z"/>
    <path class="d" d="m130,25c0,4.15-1.65,7.85-4.4,10.6-.9.9-1.95,1.7-3.1,2.4-2.2,1.25-4.75,2-7.5,2s-5.3-.75-7.5-2c-4.5-2.6-7.5-7.45-7.5-13,0-4.15,1.65-7.9,4.4-10.6,2.7-2.75,6.45-4.4,10.6-4.4s7.9,1.65,10.6,4.4c2.75,2.7,4.4,6.45,4.4,10.6Z"/>
    <rect class="d" x="60" y="99.99" width="30" height="30" rx="15" ry="15"/>
    <rect class="d" x="140" y="99.99" width="30" height="30" rx="15" ry="15"/>
    <path d="m197,179.9c-.35,1.75-.85,3.45-1.55,5.1-3.9,8.8-12.7,15-22.95,15h-32.5v-10h32.5c5.2,0,9.8-2.7,12.5-6.75.65-1,1.2-2.1,1.6-3.25.2-.45.35-.9.4-1.35,2.5.9,5.2,1.35,8,1.35.7,0,1.35-.05,2-.1Z"/>
    <rect x="50" y="209.99" width="130" height="50" rx="25" ry="25"/>
    <g>
      <path class="c" d="m114.85,259.99c.05,0,.1.01.15.01h.45s-.6-.01-.6-.01Z"/>
      <path class="c" d="m166.75,165c2.15,6.2,6.35,11.45,11.75,15h-38.5v29.99h-50v-29.99h-55c-13.8,0-25-11.2-25-25v-80c0-13.8,11.2-25,25-25h160c13.8,0,25,11.2,25,25v63.45c-1.1-1.7-2.35-3.25-3.8-4.7-3.15-3.1-6.95-5.55-11.2-7v-51.75c0-5.55-4.5-10-10-10H35c-5.55,0-10,4.45-10,10v80c0,5.5,4.45,10,10,10h131.75Z"/>
    </g>
    <rect class="d" x="100" y="219.99" width="30" height="30" rx="15" ry="15"/>
    <rect class="e" x="140" y="219.99" width="30" height="30" rx="15" ry="15"/>
    <rect class="c" x="60" y="219.99" width="30" height="30" rx="15" ry="15"/>
    <rect class="e" x="96.39" y="190.01" width="35" height="10"/>
  </g>
</svg>